<?xml version="1.0" encoding="UTF-8"?>
<svg id="Layer_2" data-name="Layer 2" xmlns="http://www.w3.org/2000/svg" viewBox="0 0 143.66 152.91">
  <g id="icons">
    <path d="m19.58,152.91c-6.94,0-13.76-4.05-14.04-4.22-.53-.32-.54-.75-.46-1.06.11-.4.48-.83.95-.83.17,0,.35.06.54.17.07.04,6.62,3.94,13.01,3.94s12.74-3.77,13.01-3.93c.16-.1.34-.15.53-.15s.36.05.52.14c.06.04,6.55,3.94,13.02,3.94s12.97-3.9,13.03-3.94c.14-.08.33-.13.54-.13s.4.05.55.14c.06.04,6.6,3.94,13.02,3.94s12.97-3.9,13.03-3.94c.15-.09.32-.14.51-.14s.36.05.52.14c.28.17,6.75,3.94,13.02,3.94s12.32-3.53,13-3.93c.14-.09.4-.15.53-.15h0c.26,0,.43.05.58.14.69.41,6.86,3.94,13.01,3.94s12.74-3.77,13.01-3.93c.16-.1.34-.15.52-.15.36,0,.68.18.86.48.28.47.13,1.09-.34,1.37-4.67,2.82-9.21,4.19-13.86,4.19,0,0,0,0,0,0-4.33,0-8.69-1.19-13.33-3.64l-.47-.25-.47.25c-4.64,2.45-8.91,3.64-13.06,3.64s-8.43-1.19-13.06-3.64l-.47-.25-.47.25c-4.64,2.45-8.92,3.64-13.07,3.64s-8.45-1.2-13.1-3.66l-.47-.25-.47.25c-4.65,2.46-8.93,3.66-13.1,3.66s-8.43-1.19-13.07-3.64l-.47-.25-.47.25c-2.09,1.1-7.55,3.68-13.06,3.68Zm108.09-10.2c-.98,0-6.19-.18-12.81-3.68l-.47-.25-.47.25c-4.63,2.45-8.91,3.64-13.06,3.64s-8.43-1.19-13.07-3.64l-.47-.25-.47.25c-4.64,2.45-8.92,3.64-13.07,3.64s-8.45-1.2-13.1-3.66l-.47-.25-.47.25c-4.65,2.46-8.93,3.66-13.1,3.66s-8.43-1.19-13.07-3.64l-.47-.25-.47.25c-2.09,1.1-7.55,3.68-13.06,3.68-6.94,0-13.76-4.05-14.04-4.22-.23-.14-.39-.36-.45-.62-.06-.26-.02-.53.11-.76.18-.3.5-.48.86-.48.18,0,.36.05.51.14.07.04,6.62,3.94,13.01,3.94s12.74-3.77,13.01-3.93c.16-.1.34-.15.52-.15s.36.05.52.14c.06.04,6.55,3.94,13.02,3.94s12.97-3.9,13.03-3.94c.14-.08.33-.13.54-.13s.4.05.55.14c.06.04,6.6,3.94,13.02,3.94s12.97-3.9,13.03-3.94c.15-.09.32-.14.51-.14s.36.05.52.14c.28.17,6.75,3.94,13.02,3.94s12.32-3.53,13-3.93c.15-.09.39-.15.53-.15h0c.26,0,.43.05.59.14.69.41,6.86,3.94,13.01,3.94s12.74-3.77,13.01-3.93c.16-.1.34-.15.52-.15.35,0,.68.18.86.48.28.47.13,1.09-.34,1.37-3.37,2.03-9.2,4.22-14.04,4.22,0,0-.2,0-.33,0Zm-117.8-14.82c-1.1,0-1.16-.98-1.16-1.17s.06-1.18,1.16-1.18,1.16.98,1.16,1.17-.06,1.18-1.16,1.18Zm6.92-.25c-.55,0-1-.45-1-1s.45-1,1-1h25.69v-9.52h-8.51c-.06,0-.12,0-.17,0-.7-.38-3.95-3-13.83-11.01-4.73-3.83-11.07-8.97-19.59-15.85-.21-.17-.34-.41-.37-.68-.03-.27.05-.53.23-.74,2.23-2.66,5.23-4.12,8.45-4.12,2.4,0,4.75.83,6.61,2.33l22.86,18.47h53.23v-28.88c0-6.76-7.08-11.3-13.7-11.3-5.74,0-10.02,3.32-11.44,8.89-.07.29-.28.53-.55.66-.19.09-.31.1-.38.1-.24,0-.56-.14-.96-.31-.82-.35-1.93-.83-3.77-.83-2.61,0-5.06,1.02-6.9,2.88-1.84,1.86-2.83,4.33-2.81,6.97v.99h33.41c.94,0,.98.83.98,1s-.05,1-.98,1h-34.19c-.99,0-1.35-1.56-1.35-2.9,0-2,.75-5.08,2.86-7.71,1.55-1.93,4.36-4.23,8.97-4.23,1.07,0,2.14.16,3.18.47l.86.26.35-.83c2.23-5.28,7.06-8.44,12.93-8.44,4.34,0,8.62,1.8,11.76,4.93l1.71,1.7v-30.57l-1.18.21c-5.37.96-9.47,5.26-10.19,10.69-.07.49-.49.87-.99.87s-.92-.37-.99-.87c-.83-6.19-6.03-10.69-12.37-10.69s-11.62,4.82-12.39,11.22l-.02.19.05.18c.11.43-.26,1.82-1.72,3.71-2.65,3.43-7.73,7.09-14.02,7.09h0c-2.01,0-4.04-.38-6.03-1.13-4.3-1.61-7.72-4.81-9.63-9.01s-2.07-8.88-.46-13.18c2.54-6.78,8.9-11.16,16.2-11.16,5.37,0,10.32,2.45,13.59,6.73l1.04,1.37.67-1.58c6.44-15.19,21.15-25.4,37.48-26.02l.96-.04V1.67c0-.55.45-1,1-1s1,.45,1,1v5.3l.96.04c22.85.93,40.75,19.73,40.75,42.79,0,.55-.45,1-1,1-.13,0-.74.02-.91.02-1.45,0-1.61-.39-1.67-.9-.89-7.77-6.92-11.25-12.5-11.25-5.23,0-11.3,3.29-12.27,10.53-.11.82-.84.86-.99.86s-.88-.04-.99-.86c-.72-5.38-4.82-9.64-10.2-10.59l-1.17-.21v47.18l1.44-.72c1.23-.61,2.55-.92,3.91-.92,1.2,0,2.41.24,3.59.72l.89.36.4-.87c2.55-5.56,7.07-8.74,12.42-8.74,4.39,0,8.72,2.14,11.59,5.74,3.06,3.84,4.09,8.87,2.88,14.15-.1.46-.5.78-.97.78h-31.36c-.94,0-.98-.83-.98-1s.05-1,.98-1h30.56l.08-.91c.39-4.48-.98-8.79-3.76-11.82-2.33-2.54-5.38-3.95-8.59-3.95-5.28,0-10,3.81-11.73,9.49-.09.31-.33.56-.64.66-.12.04-.22.06-.31.06-.24,0-.5-.15-.95-.43-.85-.52-2.02-1.23-4.22-1.23-1.03,0-4.18.56-5.14,3.07l-.06.17v15.37h37.03c6.98,0,10.63,6.41,10.63,9.84,0,.61-.12,1.11-.33,1.41-.17.24-.38.34-.71.34h-7.03v9.52h8.56c.94,0,.98.83.98,1s-.05,1-.98,1H16.78Zm76.53-10.27c.11.84.15,6.31,0,7.01l-.42,1.31,1.38-.04h28.11v-9.52h-29.48l.4,1.25Zm31.08,8.27h6.58v-9.52h-6.58v9.52Zm-71.33,0h38.8l-.42-1.31c-.13-.66-.09-6.29.02-7l.42-1.31-1.39.09h-37.43v9.52Zm-8.58,0h6.58v-9.52h-6.58v9.52ZM8.66,85.72c-1.92,0-3.8.64-5.3,1.81l-1,.77,31.95,25.82h104.73l-.35-1.26c-1.02-3.72-4.43-6.33-8.29-6.33-26.44,0-45.39.02-58.98.03-7.6,0-13.52.01-18.14.01-10.3,0-15.02-.02-16-.16-.03-.03-.07-.07-.11-.1l-23.13-18.69c-1.51-1.22-3.42-1.89-5.38-1.89Zm28.93-57.2c-6.43,0-12.03,3.87-14.28,9.86-2.95,7.87,1.05,16.66,8.91,19.61,1.7.64,3.48.96,5.3.96h0c5.18,0,9.96-2.59,12.79-6.92l.55-.84-.85-.54c-.29-.19-.46-.5-.46-.84,0-4.09.58-8.15,1.73-12.09l.11-.37-.17-.35c-2.62-5.3-7.71-8.47-13.63-8.47Zm54.73-16.95c-1.94,0-3.79.92-5.49,2.72-5.52,5.86-8.28,19.92-7.83,27.43l.16,2.73,1.64-2.19c2.78-3.72,7.01-5.86,11.6-5.86,4.31,0,8.37,1.92,11.15,5.27l1.75,2.11.02-2.74c.05-7.89-2.36-21.51-7.9-27.08-1.57-1.58-3.29-2.38-5.1-2.38Zm-40.18,38.6c-.32-8.52,6.58-13.57,13.54-13.57,3.54,0,6.97,1.3,9.64,3.67l1.64,1.45.03-2.19c.11-8.94,3.44-23.66,10.52-28.41l-.69-1.82c-27.19,3.55-37.54,31.34-34.67,40.87Zm80.09-8.79c-3.54-16.97-17.36-29.86-34.41-32.08l-.69,1.82c7.14,4.89,9.98,19.89,10.15,28.78l.04,2.28,1.65-1.57c2.69-2.57,6.27-3.99,10.06-3.99,6.56,0,13.03,4.33,13.83,12.56,0,0,.45-3.28-.63-7.79Zm-55.29,57.03c-1.1,0-1.16-.98-1.16-1.17s.06-1.18,1.16-1.18,1.16.98,1.16,1.17-.06,1.18-1.16,1.18Zm-30.47-.18c-.94,0-.98-.83-.98-1s.05-1,.98-1h22.6c.94,0,.98.83.98,1s-.05,1-.98,1h-22.6Zm-19.35-25.65c-.12,0-.24-.02-.35-.06-.25-.09-.45-.28-.56-.52-.11-.24-.12-.52-.03-.77l1.9-5.07c.16-.43.45-.65.86-.65.37,0,.75.19.95.48.17.25.19.53.06.87l-1.9,5.07c-.15.39-.52.65-.94.65h0Zm22.69-.77c-.37,0-.65-.2-.83-.59l-2.24-4.93c-.16-.34-.15-.64.02-.9.2-.3.6-.52.97-.52s.65.2.83.59l2.24,4.93c.16.35.15.64-.02.9-.2.3-.6.51-.97.51Zm-39.39-14.76c-.48,0-.83-.44-.92-.87-.07-.34-.03-.79.56-1.07l4.93-2.24c.13-.06.27-.09.41-.09.39,0,.75.23.91.59.11.24.12.51.03.76-.09.25-.28.45-.52.56l-4.93,2.24c-.17.07-.32.11-.47.11h0Zm55.06-1.89c-.31-.06-1.45-.42-5.01-1.79l-.45-.17c-.67-.25-.68-.78-.63-1.07.08-.44.42-.89.91-.89.13,0,.27.03.42.08l5.07,1.9c.72.27.66.92.63,1.11-.02.14-.18.8-.93.83Zm77.01-17.47c-.2,0-1.18-.06-1.18-1.16s.98-1.16,1.17-1.16,1.18.06,1.18,1.16c0,.38-.11.67-.34.87-.21.18-.51.29-.83.29Zm-127.66-1.52c-.13,0-.27-.03-.41-.08l-5.07-1.9c-.25-.09-.45-.28-.56-.52-.11-.24-.12-.52-.03-.77.15-.39.52-.65.93-.65.12,0,.24.02.35.06l5.07,1.9c.67.25.68.77.63,1.06-.08.44-.42.89-.92.89h0Zm125.92-6.07c-.43,0-.81-.27-.95-.68-4.77-13.88-16.14-24.15-30.44-27.47-.26-.06-.48-.22-.62-.45-.14-.23-.19-.5-.12-.75.11-.46.51-.77.97-.77.08,0,.15,0,.23.03,14.97,3.48,26.89,14.24,31.88,28.77.09.25.07.52-.05.76-.12.24-.32.42-.57.51-.11.04-.21.05-.33.05h0Zm-112.89-7.57c-.64,0-.8-.18-2.13-3.22-.29-.66-.62-1.42-1.02-2.3-.16-.35-.15-.64.02-.9.2-.3.6-.52.97-.52s.65.2.83.59l2.24,4.93c.14.31.12.66-.07.95-.19.29-.49.46-.84.46Zm18.76-.59c-.13,0-.29-.04-.49-.11-.25-.09-.45-.28-.56-.52-.11-.24-.12-.52-.03-.77l1.9-5.07c.16-.43.45-.65.86-.65.37,0,.75.19.95.48.17.24.19.53.06.88-.28.74-.52,1.42-.74,2.05-.7,1.99-1.3,3.71-1.96,3.71Z" style="fill: #383838;"/>
  </g>
</svg>