<?xml version="1.0" encoding="UTF-8"?>
<svg id="Layer_2" data-name="Layer 2" xmlns="http://www.w3.org/2000/svg" viewBox="0 0 144.02 155.95">
  <g id="icons">
    <path d="m117.88,155.95c-1.17,0-1.23-1.04-1.23-1.25s.06-1.25,1.23-1.25,1.23,1.04,1.23,1.25-.06,1.25-1.23,1.25Zm-106.02-.25c-.94,0-.98-.83-.98-1s.05-1,.98-1h98.35c.94,0,.98.83.98,1s-.05,1-.98,1H11.86Zm-10.54-8c-.94,0-.98-.83-.98-1s.05-1,.98-1h10.04l8.85-11.85v-29.07l-1.35.5c-1.36.51-2.77.76-4.17.76-3.74,0-7.34-1.84-9.63-4.92-2.23-3-2.89-6.77-1.81-10.36l.16-.52-.35-.42c-2.89-3.41-3.79-7.98-2.42-12.25,1.37-4.25,4.78-7.43,9.12-8.5l.47-.12.2-.44c2.38-5.19,7.62-8.54,13.35-8.54,1.07,0,2.14.12,3.18.35,4.77,1.07,8.56,4.3,10.39,8.86,1.82,4.55,1.33,9.48-1.37,13.53l-.4.6.44.57c2.83,3.65,3.3,8.31,1.27,12.45-2.06,4.19-6.11,6.8-10.57,6.8-1.02,0-2.06-.14-3.1-.41l-.52-.14-.42.38-.13.1-.34.3v27.8l28.21-37.78s.18-1.13.24-1.5c.33-2,.48-2.91-.07-4.04-2.78-5.71-1.15-13.47,4.14-19.77,3.02-3.58,2.42-5.15,1.02-7.82l-.1-.2c-2.98-5.7-4.69-12.69-4.69-19.17,0-2.97,1.4-4.09,3.17-5.51,1.9-1.52,4.05-3.24,4.28-7.42l.05-.85-.83-.18c-3.76-.82-9.3-6.69-9.1-13.68l.02-.56-3.74-2.43c-1.42-.92-1.83-2.82-.92-4.24l.71-1.12c1.82-2.89,2.21-3.44,3.86-3.44.56,0,1.26.07,2.28.23.36.07,2.18.64,2.51.82l.52.29.55-.29c2.18-1.38,4.91-2.14,7.7-2.14,5.56,0,12.28,3.13,14.45,11.91l.04.14.07.13c.11.18.15.39.13.61v.14s.01.14.01.14c.94,5.14-.59,11.69-3.55,15.24-1.6,1.91-3.48,2.89-5.61,2.89-1.8,0-3.78-.7-5.87-2.09l-1.22-.81-.31,1.43c-.83,3.77-2.72,5.24-4.39,6.53-1.37,1.06-2.78,2.15-2.78,4.25,0,8.71,2.39,13.74,4.13,17.42,2.03,4.29,3.05,6.44-.83,11.06-.47.56-1.05,1.25-1.65,2.15l-.63.94,1.01.51c3.64,1.85,7.74,2.83,11.83,2.83.94,0,1.89-.05,2.82-.15l.8-.09.08-.8c.24-2.32.37-4.62.38-6.83v-.49s-.38-.3-.38-.3c-6.89-5.41-11.94-12.71-14.59-21.12-.11-.34-.08-.62.09-.85.2-.27.56-.44.93-.44.44,0,.74.23.88.69,4.73,15,17.31,25.89,32.82,28.44.19.03.37.05.55.05,1.76,0,2.8-1.4,2.91-2.78.13-1.61-.89-2.92-2.49-3.18-13.27-2.18-24.03-11.5-28.07-24.33-.11-.34-.08-.62.09-.85.2-.27.56-.45.93-.45.44,0,.74.23.88.7,1.03,3.27,2.57,6.38,4.57,9.22l1.03,1.46.91-2.1c2.68-6.17,2.52-6.71-2.87-9.79l-.38-.22c-3.07-1.76-6.56-3.75-6.88-6.7-.03-.32.03-.57.2-.76.19-.21.49-.33.82-.33.26,0,.88.08.97.88.2,1.8,2.67,3.35,5.88,5.19,6.01,3.44,7.59,4.76,4.26,12.17-.95,2.11-.98,2.42-.96,2.84,0,0,0,0,0,0,0,0-.03.06-.06.16l-.22.59.43.46c4.83,5.07,11.05,8.44,17.98,9.75l.88.17,2.16-7.15c.14-.47.44-.7.89-.7.37,0,.73.17.92.43.17.23.2.51.1.85l-2.2,7.29.49.42c1.51,1.3,2.1,3.3,1.54,5.2-.56,1.9-2.12,3.25-4.09,3.52l-.63.09-10.4,34.38.1.3c2.57,7.83,4.54,13.78,6.04,18.32,4.6,13.89,4.72,14.32,4.42,15.28l-.46,1.49h19.23v-30.53l-.36-.3c-.35-.29-.71-.59-1.04-.91l-.42-.41-.56.17c-1.63.49-3.33.74-5.06.74-6.84,0-13.04-3.76-16.2-9.82-.18-.35-.19-.65-.02-.92.2-.32.6-.55.99-.55.35,0,.62.18.81.55,2.81,5.38,8.31,8.72,14.38,8.72,1.91,0,3.8-.34,5.62-1,.1-.04.21-.06.32-.06.1,0,.19.01.29.04l1.27.36v-34.51c0-.94.83-.98,1-.98s1,.05,1,.98v22.08h1c3.64,0,6.74-1.9,8.33-5.09,1.58-3.18,1.23-6.93-.92-9.77-.25-.33-.3-.66-.14-.98.18-.37.61-.64,1-.64.28,0,.52.14.73.42,2.65,3.51,3.08,7.93,1.14,11.83-1.95,3.92-5.74,6.26-10.14,6.26h-1v12.81l.46.3c2.72,1.75,5.66,2.64,8.74,2.64,5.35,0,10.58-2.82,13.64-7.36,3-4.44,3.53-9.91,1.47-15.02-.15-.38-.06-.8.23-1.09,4.8-4.71,6.52-11.61,4.49-18.01-2.05-6.47-7.29-10.99-14.02-12.09-.35-.06-.65-.3-.78-.64-3.03-8.09-10.61-13.32-19.31-13.32-7.71,0-14.47,4.07-18.09,10.89-.19.36-.46.54-.8.54-.38,0-.79-.23-.99-.55-.17-.28-.16-.58.02-.93,3.97-7.48,11.39-11.94,19.85-11.94,9.21,0,17.18,5.21,20.79,13.6l.2.47.5.11c6.92,1.51,12.35,6.44,14.51,13.18,2.17,6.76.64,13.95-4.11,19.21l-.39.43.19.55c1.87,5.55.99,11.44-2.4,16.16-3.5,4.87-9.08,7.78-14.92,7.78h0c-2.68,0-5.33-.61-7.85-1.81l-1.43-.68v29.1h25.91c.94,0,.98.83.98,1s-.05,1-.98,1H1.32Zm51.33-72.47c-2.4,5.6-1.32,8.69-.45,11.17.51,1.44.94,2.69.67,4.28-2.21,14.2-3.85,24.64-5.06,32.32q-3.37,21.39-2.78,22.17c.32.41.75.46.91.48.15.04.31.06.48.06.76,0,1.44-.48,1.7-1.2,4.04-11.56,7.29-20.83,9.91-28.31q10.97-31.3,11.83-36.63l.31-1.91-1.27.09c-.7.05-1.41.08-2.1.08h0c-4.47,0-8.77-1.04-12.78-3.09l-.95-.49-.42.98Zm17.46,70.47h14.86l-9.31-18.32-5.54,18.32Zm-20.29,0h18.2l6.32-20.9-10.21-20.09-14.31,40.98Zm-27.6-11.18v11.18h20.67l-.2-1.17c-.01-.09-.03-.16-.04-.22-.1-.42.22-2.45,2.69-18.24.93-5.96,2.17-13.89,3.82-24.48l.96-4.53-2.74,3.78-25.15,33.67Zm-8.35,11.18h6.35v-8.5l-6.35,8.5Zm62.62-21.09l.18.36c2.85,5.61,4.87,9.63,6.3,12.5q3.78,7.55,4.82,7.55c.27,0,.48-.08.62-.14q1.55-.59-1.94-11.09c-1.3-3.9-3.13-9.39-5.67-17.14l-.99-3.02-3.32,10.97Zm-6.77-35.91c-.15.49-2.76,7.92-3.87,11.1l-.81,2.3,10.14,19.94,3.54-11.71-8.07-24.63-.93,3Zm3.12-18.07c-.16,3.62-.6,7.29-1.31,10.91l-.05.26,8.25,25.18,9.49-31.36-1.06-.23c-4.92-1.06-9.56-2.94-13.79-5.57l-1.45-.9-.07,1.71Zm-49.06-8.65c-5.27,0-10.04,3.3-11.88,8.22-.13.34-.42.58-.78.64-4.06.66-7.36,3.5-8.6,7.41-1.24,3.92-.19,8.15,2.76,11.03.41.4.37.65.03,1.64-.11.32-.22.66-.3.99-.67,3,0,5.96,1.9,8.33,1.9,2.37,4.81,3.79,7.78,3.79,1.75,0,3.44-.47,5.02-1.39l.49-.29v-2.82l-.95-.05c-3.08-.15-5.75-1.97-7.31-5-1.89-3.66-1.69-8.24.5-11.67.21-.32.46-.48.77-.48.39,0,.81.25,1,.6.16.3.14.61-.08.96-1.77,2.77-1.96,6.49-.5,9.49,1.16,2.38,3.16,3.86,5.49,4.08l1.09.1v-18.41c0-.94.83-.98,1-.98s1,.05,1,.98v21.13l.8.16c.23.05.36.09.51.14.21.07.44.15.87.25.77.17,1.54.26,2.29.26,3.96,0,7.52-2.45,9.07-6.23,1.55-3.77.7-7.9-2.22-10.79-.37-.36-.39-.96-.07-1.35,3.17-3.81,3.83-8.96,1.73-13.46-2.11-4.51-6.49-7.31-11.43-7.31ZM61.45,27.15c.16,0,.39.03.6.2,2.19,1.68,4.52,2.27,5.86,2.27.22,0,.41-.02.58-.04,1.16-.19,2.35-1.1,3.43-2.63,2.04-2.88,3.7-7.99,2.83-12.93l-.08-.45-.39-.23c-1.4-.84-3-1.29-4.61-1.29-3.03,0-5.77,1.55-7.71,4.35-1.99,2.87-1.82,5.49-1.64,8.27.03.5.07,1.01.09,1.54l.04.98,1-.02Zm.53-24.77c-3.99,0-7.7,1.81-9.45,4.61-1.91,3.04-2.47,6.35-1.64,9.57.98,3.78,3.66,6.7,5.88,7.92l1.57.86-.09-1.79c-.2-3.95,1.02-7.51,3.42-10.03,2.13-2.24,4.98-3.47,8.02-3.47.73,0,1.46.07,2.19.22l2.11.42-1.04-1.89c-2.23-4.02-6.32-6.42-10.96-6.42Zm-13.03.99c-1.1,0-1.56.76-2.4,2.15-.26.43-.58.96-.99,1.6l-.22.35.07.46.09.41.38.27,2.94,1.91.41-1.22c.48-1.42,1.19-2.82,2.02-3.94l.83-1.13-1.68-.52c-.59-.19-1.02-.32-1.45-.32ZM9.02,45.01c-.47,0-.88-.34-.98-.8-.55-2.66.1-5.27,1.81-7.37,1.72-2.11,4.21-3.31,6.85-3.31.69,0,1.39.09,2.08.25l.8.2.35-.74c1.76-3.76,5.27-6,9.39-6,4.38,0,9.51,2.77,10.44,8.87l.1.63.61.18c3.51,1.01,4.38,4.42,4.11,6.33-.04.3-.3,1.77-1.26,1.77H9.02Zm7.68-9.47c-3.57,0-6.57,2.81-6.83,6.4l-.08,1.07h32.94l-.18-1.15c-.28-1.8-1.87-3.17-3.69-3.17-.55,0-1-.45-1-1,0-5.48-4.41-8.44-8.56-8.44s-7.14,2.5-8.12,6.37c-.13.52-.6.75-.97.75-.15,0-.3-.04-.44-.1-.98-.49-2.02-.73-3.07-.73Zm86.79,1.58c-.33,0-.63-.16-.82-.43-.19-.28-.23-.61-.11-.92l1.22-3.19c.16-.43.45-.64.86-.64.37,0,.76.19.95.48.17.25.19.53.06.88-.19.49-.35.93-.5,1.34-.8,2.21-.99,2.5-1.66,2.5Zm14.38-.4c-.61,0-.78-.16-1.73-2.38-.17-.4-.36-.84-.58-1.33-.15-.35-.15-.64.02-.9.2-.31.59-.51.97-.51s.66.2.83.6l1.39,3.12c.14.31.11.66-.07.95-.19.29-.49.46-.84.46Zm-24.83-9.49c-.59,0-.89-.41-.97-.8-.04-.19-.12-.81.56-1.12l3.12-1.39c.16-.07.32-.11.46-.11.49,0,.83.44.93.87.07.34.03.8-.57,1.06-.75.33-1.33.6-1.79.81-1.28.59-1.48.67-1.74.67Zm17.15-.22c-3.38,0-6.34-1.92-7.72-5-1.19-2.66-.96-5.58.61-8.01,1.6-2.46,4.24-3.93,7.06-3.93,1.03,0,2.06.2,3.07.58,4.36,1.67,6.55,6.57,4.88,10.93-1.53,4-5.09,5.43-7.91,5.43h0Zm0-14.93c-2.18,0-4.21,1.12-5.43,3-1.2,1.85-1.37,4.08-.46,6.11,1.05,2.35,3.32,3.82,5.91,3.82,2.74,0,5.05-1.59,6.03-4.15.62-1.61.57-3.37-.14-4.95-.7-1.58-1.98-2.78-3.59-3.4-.76-.29-1.54-.44-2.32-.44Zm17.6,14.19c-.32-.04-1.37-.42-3.13-1.11l-.44-.17c-.63-.24-.69-.71-.62-1.06.08-.44.42-.89.92-.89.13,0,.27.03.42.09l3.19,1.22c.71.27.65.92.62,1.11-.03.14-.19.81-.95.82Zm-31.88-12.18c-.13,0-.27-.03-.42-.09l-3.19-1.22c-.67-.25-.68-.78-.62-1.07.08-.44.42-.89.92-.89.13,0,.27.03.42.09l3.19,1.22c.67.25.68.78.62,1.07-.08.44-.42.89-.92.89Zm28.34-.8c-.59,0-.89-.41-.97-.8-.04-.19-.12-.81.56-1.12l3.12-1.39c.16-.07.32-.11.46-.11.49,0,.83.44.93.87.07.34.03.8-.57,1.07-.75.33-1.33.6-1.79.81-1.28.59-1.48.67-1.74.67Zm-20.16-7.77c-.38,0-.66-.2-.84-.59l-1.39-3.12c-.15-.34-.15-.64.02-.9.2-.31.59-.51.97-.51s.66.2.83.6l1.39,3.12c.15.35.15.64-.02.9-.2.3-.59.51-.97.51Zm11.96-.28c-.13,0-.29-.04-.47-.1-.25-.1-.45-.28-.56-.53-.11-.24-.12-.52-.02-.76l1.22-3.19c.16-.43.45-.64.86-.64.37,0,.76.19.95.48.17.25.19.53.06.88-.14.36-.27.74-.4,1.11-.47,1.36-.96,2.77-1.64,2.77Z" style="fill: #383838;"/>
  </g>
</svg>