<?xml version="1.0" encoding="UTF-8"?>
<svg id="Layer_2" data-name="Layer 2" xmlns="http://www.w3.org/2000/svg" viewBox="0 0 148.08 146.45">
  <g id="icons">
    <path d="m115.66,146.45c-7.02,0-15.9,0-27.13-.02-19.31-.02-45.58-.05-81.31-.05-.34,0-.65-.17-.83-.45-.31-.47-.33-.5,1.97-5.93.61-1.44,1.37-3.23,2.31-5.48l.32-.75L.44,126.66c-.28-.19-.44-.49-.44-.83s.16-.64.44-.83l10.54-7.12-.32-.75c-.94-2.24-1.7-4.03-2.31-5.48-2.3-5.42-2.28-5.46-1.97-5.93l.09-.14s.05-.09.09-.13c.43-.22,3.94-.22,6.5-.22,1.59,0,3.55,0,5.96.01,3.85.01,8.86.03,15.38.03h.9l.09-.9c1.42-13.59,11.7-24.77,25.01-27.19.06,0,.12-.02.18-.02.29,0,.57.13.76.35.11.13.29.41.23.8-.54,3.57.73,7.26,3.68,10.68,2.88,3.34,7.06,5.93,8.73,5.93s5.66-2.39,8.63-5.83c2.1-2.43,4.45-6.27,3.78-10.78-.07-.46.07-.62.12-.68.11-.13.49-.43,1.6-.43,6.31,0,22.73,9.52,24.57,27.17l.09.9h.9c6.42,0,11.38-.02,15.21-.03,2.41,0,4.37-.01,5.98-.01,2.62,0,6.22,0,6.69.25,0,0,.01.05.04.09l.09.14c.31.47.34.5-1.92,5.81-.6,1.41-1.34,3.15-2.25,5.33l-.31.74.65.46c2.18,1.54,3.91,2.76,5.29,3.72,4.93,3.46,4.93,3.5,4.93,4.05,0,.32-.16.63-.42.82l-10.45,7.42.31.74c.91,2.18,1.65,3.92,2.24,5.32,2.26,5.31,2.23,5.35,1.92,5.82-.04.07-.08.13-.11.19-1.41.28-8.39.33-25.91.33h0Zm-106.93-2.07h130.63l-3.81-9.13-7.05,5.01c-.23.17-.32.23-3,.23-.84,0-1.9,0-3.26-.01-2.41-.01-5.76-.03-10.44-.03-.94,0-.98-.83-.98-1s.05-1,.98-1h15.81l7.16-5.08-.31-.74c-.56-1.34-1.02-2.43-1.39-3.31-1.46-3.44-1.45-3.47-1.28-3.87l2.98-7.14-7.16-5.08h-15.81c-.94,0-.98-.83-.98-1s.05-1,.98-1h16.13c.39,0,.58.12,3,1.87.89.65,2.06,1.49,3.61,2.59l1.02.72,3.81-9.13H8.73l3.95,9.46,7.91-5.35c.23-.16.31-.21,2.86-.21.79,0,1.8,0,3.09.01,2.29.01,5.46.03,9.88.03.94,0,.98.83.98,1s-.05,1-.98,1h-14.97l-8,5.4.32.75c.53,1.26.96,2.28,1.31,3.11,1.4,3.3,1.39,3.33,1.22,3.73l-2.85,6.83,8,5.4h14.97c.94,0,.98.83.98,1s-.05,1-.98,1h-15.28c-.37,0-.56-.11-3.26-1.97-1.02-.7-2.38-1.63-4.2-2.86l-1.01-.68-3.95,9.46Zm125.05-18.56l2.65,6.34,8.93-6.34-8.93-6.34-2.65,6.34Zm-130.99,0l8.98,6.07,2.53-6.07-2.53-6.07-8.99,6.07Zm94.51-25.84c.17,0,1,.05,1,.98v4.3h12.49l-.13-1.12c-1.92-16.3-15.74-23.33-20.9-24.66l-1.2-.31-.05,1.24c-.34,8.32-8.63,14.72-12.79,16.15l-.67.23v8.47h21.26v-4.3c0-.94.83-.98,1-.98Zm-46.5,0c.17,0,1,.05,1,.98v4.3h21.24v-8.44l-.69-.23c-4.98-1.65-12.42-8.28-12.87-15.97l-.07-1.23-1.19.33c-13.57,3.71-19.68,15.48-20.78,24.42l-.14,1.12h12.5v-4.3c0-.94.83-.98,1-.98Zm47.75,33.96c-.31,0-.61-.1-.78-.27-.15-.15-.24-.38-.24-.64s.09-.5.25-.65c.19-.18.47-.28.78-.28s.61.11.79.28c.15.14.24.39.24.65s-.09.49-.24.64c-.17.16-.48.27-.79.27Zm-18.78,0c-.31,0-.61-.1-.78-.27-.15-.15-.24-.38-.24-.64s.09-.5.24-.65c.19-.18.47-.28.78-.28s.61.1.79.28c.15.15.24.39.24.65s-.09.49-.24.64c-.17.17-.48.27-.79.27Zm-14.81,0c-.31,0-.61-.1-.78-.27-.15-.15-.24-.38-.24-.64s.09-.5.24-.65c.19-.18.47-.28.78-.28s.61.1.79.28c.15.14.24.39.24.65s-.09.49-.24.64c-.17.17-.48.27-.79.27Zm21.22-.14v-16.09c.73,0,1.41-.01,2.04-.02.75,0,1.43-.01,2.05-.01,3.52,0,4.92.21,6.29,1.47.95.87,1.5,2.24,1.48,3.65-.02,1.34-.55,2.55-1.45,3.31-1.3,1.11-3.01,1.33-5.33,1.33-.37,0-.75,0-1.13,0-.4,0-.8,0-1.21,0h-1v6.37h-1.73Zm1.73-7.39h1c.39,0,.79,0,1.18.02.39,0,.77.02,1.13.02,1.64,0,5.05,0,5.05-3.71,0-4.05-3.8-4.05-5.04-4.05-.41,0-.83.01-1.24.03-.37.01-.73.03-1.07.03h-1v7.68Zm-16.3,7.39v-16.09h1.73v16.09h-1.73Zm-17.13,0l-5.58-16.09h1.99l4.81,16.08,4.85-16.08h2l-5.6,16.09h-2.47Zm80.46-56.69c-.56,0-2.14-.85-5.02-2.39-1.22-.66-2.72-1.46-4.58-2.43l-.47-.25-.47.25c-1.85.97-3.35,1.78-4.57,2.43-2.88,1.54-4.46,2.39-5.03,2.39h0c-.06,0-.13,0-.4-.2-.5-.37-.57-.41.41-5.84.25-1.37.55-3.04.9-5.1l.09-.52-7.61-7.42c-.28-.27-.37-.66-.25-1.03.12-.37.42-.62.81-.68l10.52-1.53.23-.47c.92-1.87,1.66-3.4,2.27-4.65,2.4-4.97,2.48-4.97,3.1-4.97s.7,0,3.1,4.96c.6,1.25,1.34,2.78,2.27,4.66l.23.47,10.52,1.53c.38.06.68.31.8.68.12.37.03.75-.25,1.03l-7.61,7.42.09.52c.35,2.06.66,3.73.9,5.1.98,5.43.91,5.47.41,5.84-.28.2-.34.2-.4.2Zm-14.1-20.96c-.23.47-.26.53-4.25,1.07-.96.13-2.13.29-3.54.5l-2.01.29,6.54,6.37c.39.38.41.52-.29,4.35-.17.96-.38,2.12-.63,3.54l-.34,2,8.08-4.25c.23-.12.3-.13.36-.13.43,0,1.6.62,3.71,1.76.85.46,1.89,1.01,3.15,1.68l1.79.94-1.54-9c-.09-.51-.1-.58,2.83-3.39.7-.67,1.54-1.47,2.55-2.46l1.45-1.41-9.04-1.31c-.52-.08-.58-.09-2.33-3.7-.42-.87-.93-1.93-1.57-3.22l-.9-1.82-4.04,8.19Zm-87.56,20.96c-.56,0-2.15-.85-5.02-2.39-1.22-.66-2.72-1.46-4.57-2.43l-.47-.25-.47.25c-1.85.97-3.35,1.78-4.57,2.43-2.88,1.54-4.46,2.39-5.03,2.39h0c-.06,0-.13,0-.4-.2-.5-.37-.57-.41.41-5.84.25-1.37.55-3.04.9-5.1l.09-.52-7.61-7.42c-.28-.27-.37-.66-.25-1.03.12-.37.42-.62.81-.68l10.52-1.53.23-.47c.92-1.87,1.66-3.4,2.27-4.66,2.4-4.97,2.48-4.97,3.1-4.97s.7,0,3.1,4.96c.6,1.25,1.34,2.78,2.27,4.66l.23.47,10.52,1.53c.38.06.68.31.8.68.12.37.03.75-.25,1.03l-7.61,7.42.09.52c.35,2.06.66,3.73.9,5.1.98,5.43.91,5.47.41,5.84-.28.2-.34.2-.4.2Zm-14.1-20.96c-.23.47-.26.53-4.25,1.07-.96.13-2.13.29-3.54.5l-2.01.29,6.54,6.37c.39.38.41.52-.29,4.35-.17.96-.38,2.12-.63,3.54l-.34,2,1.79-.94c1.66-.87,2.9-1.53,3.83-2.03,2.43-1.3,2.62-1.39,2.93-1.39s.49.09,2.93,1.39c.93.5,2.17,1.16,3.83,2.03l1.79.94-1.54-9c-.09-.51-.1-.58,2.83-3.39.7-.67,1.54-1.47,2.55-2.46l1.45-1.41-9.04-1.31c-.52-.08-.58-.09-2.33-3.7-.42-.87-.93-1.93-1.57-3.22l-.9-1.82-4.04,8.19Zm55.14,20.11c-10.7,0-20.24-9.97-22.68-23.71-2.11-8.52-2.21-16.58-2.21-16.91,0-7.71,3.47-14.92,9.51-19.77l.56-.45-.25-.68c-.4-1.07.12-4.28,2.52-7.74,1.81-2.62,5.91-7,12.94-7s10.93,4.17,12.7,6.66c2.41,3.38,3.17,6.9,2.77,8.05l-.23.67.55.44c6.09,4.85,9.58,12.07,9.58,19.81-.04,2.29-.69,8.23-2.91,15.91l-.02.06v.06c-2.21,14.26-11.81,24.6-22.84,24.6Zm8.36-48.72c-3.06,3.51-7.33,6.31-12.7,8.32-11.06,4.14-15.46,14.23-16.23,16.21l-.1.27.05.28c2.42,12.74,10.9,21.64,20.62,21.64s18.56-9.41,20.75-22.37l.09-.55-.42-.37c-7.38-6.42-9.68-15.97-10.31-22.86l-.21-2.33-1.54,1.76Zm2.59-7.3c.31,0,.62.12.81.33.17.19.25.44.22.74-.01.16-1.29,16.65,8.19,26.66l1.26,1.33.44-1.78c1.79-7.3,1.9-11.86,1.9-11.91,0-12.86-10.47-23.31-23.33-23.31s-23.33,10.47-23.33,23.33c0,.06.06,4.73.99,10.6l.42,2.68,1.42-2.32c2.52-4.13,7.18-9.67,15.03-12.61,12.84-4.81,15.03-12.93,15.05-13.01.17-.64.66-.74.94-.74Zm-10.56-18.2c-6.31,0-11.46,3.92-13.11,10l-.6,2.21,2.03-1.07c3.6-1.89,7.65-2.89,11.71-2.89s8.06.98,11.63,2.84l2.04,1.06-.61-2.21c-1.67-6.04-6.81-9.94-13.09-9.94Zm-.39,65.5c-2.51,0-6-1.47-6.67-2.81-.13-.27-.16-.53.13-.91.19-.25.48-.4.8-.4.22,0,.43.07.6.2,1.67,1.26,3.39,1.91,5.14,1.91s3.47-.64,5.14-1.91c.21-.16.41-.23.61-.23.4,0,.81.33.96.78.14.41.02.76-.36,1.05-2,1.52-4.2,2.32-6.35,2.32Zm6.21-18.39c-.94,0-.98-.83-.98-1s.05-1,.98-1h5.09c.94,0,.98.83.98,1s-.05,1-.98,1h-5.09Zm-15.99,0c-.94,0-.98-.83-.98-1s.05-1,.98-1h5.09c.55,0,1,.45,1,1s-.45,1-1,1h-5.09Zm43.89-3.95c-.35,0-.68-.15-.88-.38-.17-.21-.22-.48-.15-.81,2.15-10.56-.05-21.07-6.02-28.83-.26-.33-.31-.66-.15-.98.18-.38.61-.65,1-.65.28,0,.52.13.73.41,6.34,8.24,8.67,19.33,6.4,30.45-.13.65-.58.79-.93.79Zm-10.74-34.41c-.12,0-.24-.02-.37-.05-.92-.23-.93-.97-.89-1.28.07-.54.44-1.11,1.11-1.11.12,0,.24.02.37.05.92.23.93.97.89,1.28-.07.54-.44,1.11-1.11,1.11Z" style="fill: #383838;"/>
  </g>
</svg>