<?xml version="1.0" encoding="UTF-8"?>
<svg id="Layer_2" data-name="Layer 2" xmlns="http://www.w3.org/2000/svg" viewBox="0 0 158.02 151.09">
  <g id="icons">
    <path d="m48.18,151.09c-11.9,0-17.69-.05-18.93-.32-.03-.08-.07-.16-.12-.25l-.05-.09c-.04-.07-.1-.17-.11-.2-.02-.55,1.75-3.55,5.61-10.11,1.73-2.94,3.95-6.72,6.8-11.59l.88-1.5H9c-.94,0-.98-.83-.98-1s.05-1,.98-1h53.36v-1c0-.06,0-.12.02-.18l4.92-27.14c1.7-9.31,5.5-16.7,11.3-21.97l.57-.52-.36-.68c-9.47-18.1-9.35-40.96.29-56.89,6.09-10.07,15.14-15.61,25.48-15.61.77,0,1.56.03,2.34.09,9.6.4,18.08,6.15,23.92,16.21,9.31,16.05,9.3,38.07-.03,56.09l-.35.69.57.52c9.39,8.47,11.05,18.15,14.06,35.71.48,2.81,1,5.81,1.58,9.03.27,1.5.11,2.97-.45,4.25l-.62,1.41h11.45c.94,0,.98.83.98,1s-.05,1-.98,1h-45.3l.88,1.5c2.83,4.86,5.05,8.62,6.78,11.56,3.88,6.58,5.65,9.59,5.62,10.16,0,.01-.16.27-.16.27-.18.31-.51.5-.87.5-24.62,0-42.88.03-56.43.05-7.99.01-14.34.02-19.39.02Zm31.05-18.81c-.51.33-.54.34-.64.4l-.75.43.14.71c0,.08.04,1.58.02,13.88v1.31s44.26,0,44.26,0l-12.83-22h-17.52l-.27,1.43c-.15.85-.15.87-.59,1.4l-.49.6,1.91,2.56h14.54c.55,0,1,.45,1,1s-.45,1-1,1c-3.93,0-6.92.05-9.1.08-1.35.02-2.44.04-3.33.04-3.15,0-3.21-.08-4.12-1.41-.21-.31-.45-.66-.75-1.06l-.61-.82-.81.63c-1.5,1.18-2.15,1.56-2.99,1.75-.37.09-.74.13-1.1.13-1.42,0-2.71-.65-3.63-1.84l-.56-.73-.77.5Zm-47.49,16.74h44.26v-15.45l-.91-.08c-1.67-.15-3.2-1.01-4.19-2.35l-.54-.73c-.93-1.25-1.21-1.63-1.52-2.67l-.21-.72h-24.06l-12.83,22Zm46.62-22c.31,0,.6.14.79.39l1.75,2.27,4.29,2.51.51-.32c.42-.26.99-.7,1.13-1.48.25-1.36-.82-2.77-4.37-7.44-.86-1.13-1.86-2.46-3.02-4.01l-.52-.69-1.25.67-5.48,4.31c-1.3,1.03-1.88,2.7-1.42,4.06.21.62.79,1.41,1.47,2.31l.26.35c.72.98,1.88,1.56,3.09,1.56.74,0,1.45-.21,2.07-.61l1.1-.71-1.2-1.56c-.16-.21-.23-.47-.2-.74.03-.26.17-.5.38-.66.18-.14.39-.21.61-.21Zm7.38-3.09c.34.56,1.05,1.5,2.38,3.29l1.35,1.81.43-2.22c.21-1.11.4-2.03.56-2.78.63-3.06.87-4.2-.65-4.89l-2.94-1.33c-1.11-.5-2.28-.75-3.5-.75-.3,0-.61.02-.91.05l-1.75.18,4.98,6.66.05-.03Zm23.49-7.54c-2.25,0-3.33.94-6.91,4.05-.89.77-1.95,1.69-3.23,2.78l-1.42,1.21,1.79.52c.19.05.25.07,7.25.07h5.29v-8.38l-.88-.11c-.73-.09-1.34-.15-1.89-.15Zm4.77,8.63h27.02c1.12,0,2.11-.45,2.79-1.27,1.41-1.68,1.36-1.92-.99-14.55-.59-3.16-1.33-7.13-2.24-12.14-2.32-12.81-8.96-21.9-19.18-26.27l-1.39-.6v10.31c0,.35-.17.66-.47.85-.23.15-.27.17-.31.17-.56,0-2.54-.96-6.88-3.06-1.81-.87-4.07-1.97-6.91-3.32l-.43-.21-13.57,6.48c-.14.07-.28.1-.43.1-.19,0-.37-.05-.53-.15-.29-.19-.47-.5-.47-.85v-10.35l-1.39.59c-10.31,4.35-17,13.46-19.35,26.32l-5.07,27.96h4.55l.24-.65c.39-1.06,1.08-2,1.98-2.71l.3-.24c4.39-3.47,5.31-4.17,5.47-4.27l.89-.58-.61-.87-5.6-7.5c-.25-.34-.3-.66-.14-.98.19-.37.61-.64,1-.64.28,0,.53.14.74.42l6.02,8.05,3.12-17.21c.09-.48.5-.82.97-.82.06,0,.12,0,.18.02.27.05.5.2.65.42.15.22.21.48.16.75l-3.09,17.05,1.32-.13c.39-.04.76-.06,1.12-.06,2.29,0,3.89.74,6.1,1.76.35.16.7.33,1.07.49,2.77,1.25,2.48,3.77,1.98,6.04-.04.18-.07.33-.1.47l-.23,1.19h4.31v-1.01c-.02-.83.35-1.6,1.04-2.18,1.11-.94,2.08-1.78,2.94-2.54,4.1-3.58,5.64-4.91,8.64-4.91.52,0,1.08.04,1.73.12l.86.11.22-.84c.12-.44.51-.75.96-.75h15.75l-.2-1.17c-.32-1.83-.64-3.8-.97-5.87-.41-2.52-.83-5.19-1.32-7.95-.06-.33,0-.59.17-.79.19-.23.52-.37.86-.37.3,0,.81.11.94.81.49,2.77.93,5.53,1.37,8.28.3,1.86.6,3.71.91,5.55.16.87-.08,1.75-.65,2.43-.57.68-1.41,1.08-2.3,1.08h-13.56v10Zm-23-57.24c.48,0,1,.38,1,1v10.13l12.57-6c.18-.09.25-.11.29-.11.46,0,2.09.79,5.67,2.52,1.56.75,3.53,1.71,6.05,2.91l1.43.68v-10.09c0-.62.52-1,1-1,.1,0,.21.02.31.05,3.11,1.02,6.01,2.46,8.61,4.28l.95.66.52-1.03c12.34-24.58,5.25-53.18-8.84-63.49-6.56-4.8-13.69-5.16-13.76-5.16-.7-.06-1.44-.08-2.16-.08-9.6,0-18.02,5.12-23.73,14.42-9.12,14.86-9.4,37.25-.67,54.45l.52,1.03.94-.66c2.7-1.89,5.73-3.38,8.99-4.44.1-.03.21-.05.31-.05ZM17.08,151.03c-.46,0-.79-.2-.97-.53-.08-.16-.25-.58.05-1.02l12-18c.19-.28.5-.44.83-.44.2,0,.39.06.55.17.22.15.37.37.43.64.05.26,0,.53-.15.75-2.81,4.22-4.98,7.5-6.66,10.04-3.71,5.62-5.41,8.19-5.88,8.4,0,0-.05,0-.14,0h-.07Zm119.92,0c-.34,0-.65-.17-.83-.45l-12-18c-.23-.34-.26-.66-.09-.96.19-.35.61-.61,1-.61.3,0,.55.15.76.46l12,18c.15.22.2.49.15.75-.05.26-.2.49-.42.63-.17.11-.36.17-.55.17Zm-38-8c-.94,0-.98-.83-.98-1,0-.28.09-.54.25-.71.17-.19.41-.29.74-.29h10c.94,0,.98.83.98,1s-.05,1-.98,1h-10Zm-14,0c-.94,0-.98-.83-.98-1s.05-1,.98-1h6c.94,0,.98.83.98,1s-.05,1-.98,1h-6ZM6,111.03c-3.31,0-6-2.69-6-6v-29.99c0-3.31,2.69-6,6-6h59c.41,0,.77.24.92.62.27.64.29.71-5.45,6.38-1.61,1.59-3.64,3.59-6.18,6.13l-.29.29v22.58c0,3.31-2.69,6-6,6H6Zm0-40c-2.21,0-4,1.8-4,4v29.99c0,2.21,1.8,4,4,4h42c2.21,0,4-1.79,4-4v-23c0-.26.11-.52.29-.71l10.29-10.29H6Zm144.74,31.66c-.21,0-1.25-.06-1.25-1.24s1.05-1.24,1.26-1.24,1.25.06,1.25,1.24-1.05,1.24-1.26,1.24Zm-139.74-1.66c-.55,0-1-.45-1-1s.45-1,1-1h26c.55,0,1,.45,1,1s-.45,1-1,1H11Zm138.38-4.58c-.36,0-.81-.14-.94-.81-1.12-6.18-2.72-9.82-3.78-12.23-1.14-2.6-1.08-2.63-.34-3.01.14-.07.29-.11.45-.11.38,0,.72.21.89.55,2.2,4.33,3.79,9.18,4.75,14.44.06.33,0,.59-.16.79-.19.23-.53.37-.87.37Zm-120.38-5.42c-.55,0-1-.45-1-1s.45-1,1-1h4c.55,0,1,.45,1,1s-.45,1-1,1h-4Zm-18,0c-.55,0-1-.45-1-1s.45-1,1-1h12c.55,0,1,.45,1,1s-.45,1-1,1h-12Zm0-10c-.55,0-1-.45-1-1s.45-1,1-1h32c.55,0,1,.45,1,1s-.45,1-1,1H11Zm93.78-14.5c-6.58,0-13.77-5.9-17.48-11.72-5.79-9.1-5.24-22.2,1.34-31.86.19-.27.5-.44.83-.44.05,0,.1,0,.15.01.61.09.73.23,1.65,3.52.16.57.34,1.21.55,1.93l.18.63.66.08c.96.12,1.97.22,3,.32l.61.06,3.87-6.09c.18-.29.5-.46.84-.46.09,0,.19.01.28.04.68.2.8.49.75,3.71,0,.63-.02,1.34-.02,2.13v.98s.99.01.99.01c.61,0,1.21.01,1.8.01,4.29,0,8.15-.23,12.13-.72l.65-.08.18-.63c.46-1.58.92-3.17,1.4-4.75.16-.52.62-.71.96-.71.2,0,.56.06.82.43,6.25,9.18,7.06,20.44,2.17,30.14-3.98,7.89-11.16,13.17-18.28,13.45h-.04Zm-16.81-38.35c-3.96,8.52-3.52,17.87,1.19,25.65,3.78,6.24,9.9,10.44,15.58,10.7,5.76-.26,11.88-4.47,15.67-10.72,4.71-7.77,5.14-17.11,1.19-25.63l-1.12-2.42-1.15,3.96c-.13.45-.45.73-.85.78-6.14.84-11.95.93-14.17.93s-3.31-.08-3.54-.13c-.04-.01-.15-.05-.2-.07-.08-.04-.22-.14-.3-.21-.03-.03-.09-.11-.12-.16-.01-.02-.06-.12-.09-.17-.03-.08-.07-.25-.07-.35l-.03-3.39-1.93,3.04c-.68,1.07-.71,1.12-1.61,1.12s-2.45-.21-4.97-.56l-.37-.05c-.39-.05-.71-.33-.82-.71l-1.17-4.03-1.12,2.42Zm-41.52,30.92c-2.89,0-6.47-.01-10.92-.02-7.28-.02-16.87-.05-29.52-.05C2.69,59.03,0,56.33,0,53.02v-25.99C0,23.72,2.69,21.03,6,21.03h34c3.31,0,6,2.69,6,6v18.58l11.71,11.71c.29.29.37.71.22,1.09-.05.12-.09.23-.12.33,0,0,0,.01,0,.02-.89.31-5.48.34-11.35.34h0ZM6,23.03c-2.21,0-4,1.8-4,4v25.99c0,2.21,1.8,4,4,4h48.58l-10.29-10.29c-.37-.37-.39-.73-.34-7.53.02-2.84.05-6.75.05-12.17,0-2.21-1.8-4-4-4H6Zm99.2,34.6c-2.56,0-6.1-1.49-6.78-2.86-.13-.27-.16-.53.13-.91.19-.25.48-.4.8-.4.22,0,.43.07.6.2,1.71,1.29,3.47,1.95,5.26,1.95s3.55-.66,5.25-1.95c.18-.13.38-.2.6-.2.32,0,.61.15.8.4.29.38.26.64.12.91-.68,1.36-4.23,2.86-6.78,2.86Zm-82.89-6.44c-.95,0-.99-.84-.99-1.01s.05-1.01.99-1.01.99.84.99,1.01-.05,1.01-.99,1.01Zm0-5.37c-.56,0-.74-.25-.84-.49-.41-.99.2-3.08,1.75-4.64.3-.28.6-.55.87-.79,1.59-1.43,2.63-2.37,2.63-4.4,0-2.88-2.25-4.38-4.47-4.38s-4.37,1.5-4.37,4.38c0,.37-.24.74-.58.88-.14.06-.29.09-.42.09-.2,0-.47-.06-.67-.37-.39-.6-.29-1.74.28-3.05,1.06-2.43,3.12-3.83,5.66-3.83,3.17,0,6.45,2.35,6.45,6.27,0,2.82-1.51,4.19-2.98,5.51-1.18,1.06-2.39,2.16-2.39,3.87,0,.56-.38.94-.94.94Zm89.23-6.96c-.94,0-.98-.83-.98-1s.05-1,.98-1h5.19c.94,0,.98.83.98,1s-.05,1-.98,1h-5.19Zm-18.71,0c-.94,0-.98-.83-.98-1s.05-1,.98-1h5.19c.55,0,1,.45,1,1s-.45,1-1,1h-5.19Zm-39.83-4.54c-.21,0-1.25-.06-1.25-1.24,0-.69.56-1.25,1.25-1.25s1.25.56,1.25,1.25c0,1.18-1.05,1.24-1.26,1.24Zm0-6.29c-.55,0-1-.45-1-1,0-6.62-5.38-12-12-12h-11c-.94,0-.98-.83-.98-1s.05-1,.98-1h11c9.24,0,14.07,8.46,14.07,12.99,0,.75-.14,2.01-1.07,2.01Zm86.78-6.75c-1.18,0-1.24-1.05-1.24-1.26s.06-1.25,1.24-1.25,1.24,1.05,1.24,1.26-.06,1.25-1.24,1.25Zm-2.54-6c-.34,0-.6-.17-.8-.53-2.91-5.28-6.66-9.62-11.17-12.92-.39-.28-.51-.64-.38-1.05.15-.45.56-.79.96-.79.19,0,.39.08.6.22,4.74,3.47,8.69,8.04,11.74,13.57.19.34.2.65.03.93-.2.33-.6.56-.99.56Z" style="fill: #383838;"/>
  </g>
</svg>