<?xml version="1.0" encoding="UTF-8"?>
<svg id="Layer_2" data-name="Layer 2" xmlns="http://www.w3.org/2000/svg" viewBox="0 0 152.34 154.36">
  <g id="icons">
    <path d="m34.82,154.36c-.92,0-.97-.82-.97-.98s.05-.98.97-.98c13.93,0,27.53-4.86,38.28-13.68.23-.19.46-.22.62-.22.3,0,.57.13.76.36.17.2.24.46.22.72-.03.26-.15.5-.35.66-11.1,9.11-25.14,14.13-39.53,14.13Zm0-7.94c-12.57,0-24.83-4.38-34.52-12.32-.27-.26-.7-2.28.46-6.2,2.4-8.16,9.38-17.68,21.8-19.94.06-.01.12-.02.18-.02.28,0,.55.12.74.34.11.13.28.4.23.79-.47,3.14.64,6.4,3.22,9.44,2.56,3,6.3,5.36,7.82,5.37,1.57-.02,5.13-2.2,7.77-5.3,1.83-2.15,3.89-5.54,3.3-9.52-.04-.28.04-.55.22-.77.18-.22.44-.34.72-.36h.22c2.18,0,6.36,1.2,10.96,4.59l.26.2h.33c4.86,0,8.63-.02,11.57-.03,1.87,0,3.4-.02,4.66-.02,1.93,0,4.84,0,5.25.24.02.04.05.1.09.17l.07.12c.85,1.46,1.98,1.52,4.24,1.52.46,0,.99,0,1.61-.01.85,0,1.86-.02,3.06-.02,1.43,0,2.07-.83,2.49-1.38.36-.47.48-.61.93-.61h45.98V39.32h-11.22c-.54,0-.98-.44-.98-.98s.44-.98.98-.98h11.67c.84,0,1.52.68,1.52,1.52v73.85h5.97V35.65c0-2.35-1.92-4.27-4.27-4.27h-13.45c-.92,0-.97-.82-.97-.98s.05-.98.97-.98h13.45c3.44,0,6.24,2.8,6.24,6.24v77.07h2.98c.54,0,.98.44.98.98v.99c0,4.37-3.56,7.92-7.93,7.92h-77.71l.63,1.41c1.31,2.91,2.1,6.02,2.34,9.23.02.32-.11.63-.36.83-9.69,7.94-21.93,12.32-34.49,12.32h0Zm-20.87-18c.23,0,.98.07.98.97v11.16l.63.25c6.17,2.43,12.65,3.66,19.25,3.66s13.08-1.23,19.25-3.67l.63-.25v-11.16c0-.54.44-.98.98-.98s.98.44.98.98v10.33l1.44-.71c3.23-1.6,6.3-3.54,9.12-5.75l.44-.35-.06-.56c-1.57-13.42-13.13-20.7-18.48-22.12l-1.19-.32-.07,1.23c-.46,8.19-9.65,14.71-13.11,14.71s-12.47-6.42-13.09-14.49l-.09-1.22-1.18.33c-12.04,3.41-17.43,13.92-18.39,21.88l-.07.56.44.35c2.82,2.21,5.89,4.15,9.13,5.75l1.44.71v-10.33c0-.92.82-.97.98-.97Zm48.28-12.05c1.11,1.2,2.12,2.49,3.01,3.84l.3.45h78.88c2.82,0,5.28-2,5.84-4.77l.24-1.2h-57.45l-.3.33c-1.3,1.45-2.5,1.69-5.46,1.69-.56,0-1.16,0-1.83-.02-.82-.01-1.72-.02-2.73-.02-1.39,0-2.73-.6-3.67-1.65l-.3-.33h-18.09l1.56,1.68Zm15.9,19.81c-.19,0-.83-.06-.83-.81s.63-.81.83-.81.83.06.83.81c0,.27-.08.47-.23.61-.15.13-.36.2-.59.2h0Zm-43.09-28.89c-2.76,0-5.45-.71-8-2.11l-.32-.18-.36.07c-1.75.36-3.19.51-4.81.51-4.12,0-8.31-1.08-12.11-3.12-.25-.14-.43-.37-.49-.65-.06-.28,0-.57.17-.8,3.24-4.44,5.03-9.47,5.31-14.95l.02-.31-.16-.26c-3.74-6.19-4.88-12.93-3.21-18.98,1.2-4.33,3.78-7.9,6.92-9.56,1.72-.91,3.74-1.41,5.83-1.43h.36s.27-.24.27-.24c3.96-3.35,8.98-5.2,14.14-5.2,8.86,0,15.91,5.21,18.84,13.94,2.55,7.6.32,17.16-1.63,20.37l-.14.23v.39c-.2,1.27.37,5.57,1.55,8.87.9,2.52,2.17,4.91,3.78,7.12.17.23.23.52.17.8-.06.28-.24.51-.49.65-2.64,1.43-6.88,3.13-12.08,3.13-1.64,0-3.13-.16-4.82-.51l-.36-.08-.32.18c-2.56,1.4-5.26,2.11-8.02,2.11Zm-9.46-38.93c-4.88,4.48-7.98,10.4-8.99,17.12l-.02.17.03.16c2.12,11.49,9.71,19.51,18.45,19.51s16.4-8.08,18.48-19.66l.17-.96-.96-.19c-2.07-.42-4.16-1.01-6.23-1.77l-.44-.16-.4.23c-.19.11-.28.16-1.31.16-.3,0-.65,0-1.08,0-.68,0-1.54-.02-2.66-.02-.63,0-.86-.48-.91-.63-.06-.15-.2-.66.26-1.08l1.03-.92-1.2-.69c-4.98-2.85-9.27-6.6-12.75-11.14l-.66-.87-.81.74Zm-10.55,25.26c-.82,2.55-1.7,4.48-3.05,6.66l-.62.99,1.07.46c2.95,1.26,6.02,1.89,9.11,1.89h.4s2.41-.05,2.41-.05l-1.73-1.67c-2.34-2.27-4.26-5.08-5.72-8.38l-1.07-2.4-.8,2.5Zm38.16-.1c-1.46,3.29-3.38,6.11-5.72,8.37l-1.72,1.67,2.4.05h.43c3.09,0,6.14-.63,9.08-1.88l1.07-.46-.62-.99c-1.35-2.17-2.24-4.1-3.05-6.66l-.8-2.5-1.07,2.4Zm-29.27-36.03c-1.82,0-3.51.4-5.02,1.2-3.96,2.1-5.21,6.14-5.88,8.31-1.57,5.09-.39,10.03.88,13.27l1.03,2.63.86-2.7c1.7-5.35,4.68-9.94,8.85-13.65l.54-.48-.29-.66c-.11-.25-.21-.5-.3-.75-.33-.9-.57-1.85-.7-2.81-.04-.26.03-.52.19-.73.16-.21.39-.35.65-.38.06,0,.1-.01.15-.01.48,0,.89.36.96.85.12.82.32,1.63.6,2.41.13.36.29.7.45,1.04l.1.22.2.16c.08.08.39.5.67.87,2.43,3.23,8.89,11.8,22.31,15.57l2.94.83-3.97-5.07c-.25-.32-.31-.65-.15-.97.18-.37.59-.64.98-.64.27,0,.51.13.72.4l4.17,5.32.55-1.85c.92-3.09,1.32-6.17,1.18-9.17-.06-1.28-.16-3.43-1.04-6.04-.47-1.4-1.9-5.67-5.98-8.89-3.85-3.04-8.17-3.67-11.12-3.67-1.39,0-2.54.14-3.26.26-4.65.76-8.01,3.08-10.01,4.89-.19.17-.41.25-.65.25-.24,0-.43-.01-.62-.01Zm11.12,41.97c-1.98,0-3.92-.71-5.75-2.1-.37-.28-.49-.63-.36-1.03.15-.44.56-.77.95-.77.19,0,.39.08.59.23,1.48,1.12,3.02,1.69,4.56,1.69s3.08-.57,4.56-1.69c.17-.13.38-.2.59-.2.31,0,.6.14.79.39.33.43.24,1.05-.19,1.38-1.83,1.39-3.77,2.09-5.74,2.09h0Zm64.74-2.62c-.54,0-.98-.44-.98-.98s.44-.98.98-.98h11.9c.54,0,.98.44.98.98s-.44.98-.98.98h-11.9Zm-21.82,0c-.92,0-.97-.82-.97-.98s.05-.98.97-.98h15.87c.54,0,.98.44.98.98s-.44.98-.98.98h-15.87Zm0-7.93c-.54,0-.98-.44-.98-.98s.44-.98.98-.98h49.59c.92,0,.97.82.97.98s-.05.98-.97.98h-49.59Zm-51.7-5.95c-.54,0-.98-.44-.98-.98s.44-.98.98-.98h4.57c.92,0,.97.82.97.98s-.05.98-.97.98h-4.57Zm51.7-1.98c-.54,0-.98-.44-.98-.98s.44-.98.98-.98h39.67c.54,0,.98.44.98.98s-.44.98-.98.98h-39.67Zm-.28-9.92c-.31,0-.61-.15-.8-.41-.21-.29-.25-.68-.09-1,1.03-2.16,1.49-4.36,1.36-6.54-.2-3.37-.86-5.26-1.41-5.92l-.18-.22-.27-.09c-16.1-5.17-25-15.42-23.23-26.74,1.73-11.04,14.12-22.21,34.45-22.21,19.13,0,34.7,11.16,34.7,24.88,0,10.64-9.44,20.1-23.49,23.53h-.06s-.06.04-.06.04c-.25.09-.5.19-.76.28l-.38.13-.18.36c-4.72,9.49-14.5,13.91-19.61,13.91Zm9.83-61.15c-18.05,0-32.73,10.28-32.73,22.91,0,8.46,6.66,16.21,17.39,20.22.29.11.55.25.87.41.77.39,1.83.93,3.97,1.61,3.02.96,3.59,8.56,2.74,12.15l-.39,1.66,1.64-.47c6.58-1.88,12-6.55,14.87-12.81.12-.25.33-.44.6-.53.27-.08,1.03-.35,1.47-.51l.29-.1c13.14-3.17,22.02-11.87,22.02-21.62,0-12.63-14.69-22.91-32.74-22.91ZM24.42,48.36c-.54,0-.98-.44-.98-.98v-11.72c0-3.44,2.8-6.24,6.24-6.24h16.45c.92,0,.97.82.97.98s-.05.98-.97.98h-16.45c-2.35,0-4.27,1.92-4.27,4.27v11.72c0,.54-.44.98-.98.98Zm7.93-2.56c-.54,0-.98-.44-.98-.98v-5.94c0-.84.68-1.52,1.52-1.52h15.11c.92,0,.97.82.97.98s-.05.98-.97.98h-14.66v5.49c0,.54-.44.98-.98.98Zm54.7-10.75c-1.32,0-1.79-.98-1.79-1.82,0-.49.16-.95.45-1.28.32-.36.77-.54,1.35-.54,1.33,0,1.8.98,1.8,1.82s-.47,1.82-1.8,1.82Zm11.59-.02c-.84,0-1.82-.47-1.82-1.79s.98-1.79,1.82-1.79,1.82.47,1.82,1.79c0,.58-.18,1.03-.54,1.35-.32.29-.79.45-1.28.45h0Zm-23.49,0c-.84,0-1.82-.47-1.82-1.79s.98-1.79,1.82-1.79,1.82.47,1.82,1.79c0,.58-.18,1.03-.54,1.35-.32.29-.79.45-1.28.45h0Zm-26.07-13.55c-.38,0-.78-.22-.98-.54-.16-.27-.15-.57.03-.91C54.65,7.86,70.11,0,87.53,0c.92,0,.97.82.97.98s-.05.98-.97.98c-16.7,0-31.48,7.45-37.65,18.98-.19.35-.45.52-.79.52ZM93.68,1.79c-.19,0-.83-.06-.83-.81s.63-.81.83-.81.83.06.83.81c0,.27-.08.47-.23.61-.15.13-.36.2-.59.2h0Z" style="fill: #383838;"/>
  </g>
</svg>