<?xml version="1.0" encoding="UTF-8"?>
<svg id="Layer_2" data-name="Layer 2" xmlns="http://www.w3.org/2000/svg" viewBox="0 0 147.42 143.53">
  <g id="icons">
    <path d="m115.56,143.53c-12.7,0-23.03-10.33-23.03-23.03s10.33-23.03,23.03-23.03,23.03,10.33,23.03,23.03-10.33,23.03-23.03,23.03Zm0-44.06c-11.59,0-21.03,9.43-21.03,21.03s9.43,21.03,21.03,21.03,21.03-9.43,21.03-21.03-9.43-21.03-21.03-21.03Zm-41.48,42.06c-18.41,0-36.02-6.44-49.6-18.12-.35-.26-.51-.59-.49-.93,1.15-17.63,14.1-32.08,31.49-35.14.11-.01.22-.03.32-.05.07-.01.14-.03.24-.04.04,0,.09,0,.13,0,.3,0,.59.14.79.38l.06.08.08.06c4.98,4.12,10.74,6.29,16.66,6.29h0c5.99,0,11.81-2.22,16.81-6.42.23-.21.47-.31.72-.31.06,0,.12,0,.17.02,6.44,1.15,10.32,3.41,14.85,6.93.37.29.49.64.35,1.04-.15.44-.57.78-.97.78-.2,0-.41-.08-.61-.24-4.15-3.22-7.42-5.18-12.82-6.31l-2.45-.52,1.43,2.06c.26.38.27.53-.25,5.82-.21,2.1-.49,4.97-.84,8.92-.05.52-.48.91-1,.91-.32,0-.77-.23-4.83-2.33-1.87-.97-4.48-2.31-8.15-4.19l-1.46-.75v40.01l1.04-.04c7.43-.26,12.17-1.19,15.01-1.75,1.37-.27,2.36-.47,3-.47.48,0,.59,0,.76.66.07.26.03.53-.11.76-.14.23-.36.39-.62.46-6.46,1.62-13.08,2.44-19.69,2.44h0Zm-32.23-24c.17,0,1,.05,1,.98v14.31l.59.26c8.94,4.01,18.44,6.14,28.24,6.35l1.02.02v-39.95l-1.46.74c-3.01,1.54-5.33,2.75-7.12,3.68-3.58,1.87-5.37,2.8-5.89,2.8-.05,0-.11-.02-.34-.15-.49-.27-.53-.29-1.12-7.25-.17-1.97-.38-4.47-.66-7.62-.02-.26.05-.51.22-.72l.56-.7-1-1.01-.52.09c-15.75,2.94-27.79,16.17-29.29,32.17l-.05.52.4.34c4,3.37,8.37,6.29,12.96,8.71l1.46.77v-13.38c0-.94.83-.98,1-.98Zm46.43-13.38l1.18-13.1-1.69,1.01c-3.63,2.17-7.51,3.47-11.54,3.85l-2.5.24-2.47-.23c-4.02-.38-7.9-1.67-11.53-3.84l-1.69-1.01,1.18,13.07,14.52-7.43,14.52,7.43Zm27.28,29.64c-.28,0-.54-.09-.71-.25-.19-.17-.29-.42-.29-.74v-11.59h-11.21c-.94,0-.98-.83-.98-1s.05-1,.98-1h11.21v-9.89c0-.94.83-.98,1-.98s1,.05,1,.98v9.89h9.79c.94,0,.98.83.98,1s-.05,1-.98,1h-9.79v11.59c0,.94-.83.98-1,.98Zm30.65-12.32c-.17,0-1-.05-1-.98,0-12.96-8.67-24.63-21.08-28.39-.71-.21-.74-.76-.69-1.06.06-.44.38-.91.91-.91.11,0,.23.02.36.06,13.25,4.01,22.5,16.47,22.5,30.3,0,.94-.83.98-1,.98Zm-127.94-9.31c-.83,0-.89-.7-.89-.91s.06-.91.89-.91.89.7.89.91-.06.91-.89.91Zm2.95-6.76c-.16,0-.31-.04-.45-.11-.49-.25-.69-.85-.45-1.34,4.53-9.04,12.01-16.48,21.08-20.94.17-.09.34-.13.49-.13.48,0,.83.44.93.86.08.33.04.78-.54,1.06-6.98,3.44-12.97,8.67-17.31,15.13-1.14,1.7-1.82,2.95-2.31,3.87-.86,1.59-.9,1.59-1.44,1.59Zm96.25-14.84c-.21,0-.91-.06-.91-.9s.7-.89.91-.89.91.06.91.89-.7.9-.91.9Zm-43.98-3.13c-12.63-.2-23.66-12.17-26.24-28.46l-.06-.39-.31-.24c-.3-.24-.66-.41-1.03-.59-1.14-.55-2.7-1.31-4.05-4.55-1.73-4.15-1.33-6.44-.68-7.63.67-1.24,1.79-1.61,2.39-1.72l1.05-.19-.26-1.04c-2.13-8.43-.63-16.5,4.21-22.72,5.57-7.15,14.94-11.25,25.7-11.25s19.24,3.87,24.68,10.9c4.99,6.44,6.52,14.68,4.31,23.21l-.24.91.9.29c.49.16.92.41,1.27.74,1.66,1.58,1.66,4.52,0,8.5-1.35,3.23-2.91,4-4.06,4.56-.37.18-.72.35-1.02.59l-.31.24-.06.39c-2.58,16.29-13.58,28.26-26.18,28.46Zm-29.2-41.59c-.57,0-1.06.26-1.37.72-1.01,1.52.42,5.15.72,5.86,1.05,2.52,2.65,3.37,3.82,3.99,1.03.55,1.55.82,1.72,1.93,2.34,15.52,12.56,26.91,24.3,27.09,15.73-.24,24.22-19.31,24.28-27.16.18-1.08.7-1.35,1.71-1.88,1.16-.61,2.76-1.45,3.81-3.96.07-.17,1.78-4.3.78-5.92-.26-.43-.68-.69-1.18-.72l-.68-.05-.29.62c-1.11,2.33-3.23,5.1-3.84,5.39-.18.09-.3.14-.34.15-.59-.05-3.44-2.41-9.69-7.58-2.83-2.35-6.47-5.36-11.19-9.24l-1.43-1.18-.3,2.85c-.34,3.3-.5,4.14-.99,4.14-.68,0-2.01-.47-3.87-1.13-3.05-1.08-7.66-2.71-14.9-4.33l-.82-.18-.32.77c-.65,1.55-1.17,3.05-1.59,4.59-1.24,4.43-1.31,7.29-1.36,9.18-.05,2.04-.13,2.14-.7,2.35-.11.04-.23.06-.34.06-.3,0-.58-.13-.77-.36-1.15-1.15-2.72-3.2-3.76-5.34l-.17-.36-.37-.14c-.31-.12-.59-.18-.87-.18Zm46.98-11.53c.55,0,1,.45,1,1v9.85l5.27,4.32.63-.83c4.55-6.01,4.37-15.13,3.14-19.8-2.92-11.06-13.58-18.21-27.17-18.21-11.51,0-24.61,5.63-27.93,18.21-.53,2.01-1.83,10.8,1.47,17.16l1.47,2.83.41-3.16c.54-4.14,1.68-8.06,3.5-11.99.16-.35.52-.58.9-.58.07,0,.14,0,.21.02,5.96,1.25,11.86,2.93,17.53,5l1.2.44.14-1.27c.11-1,.19-1.86.26-2.58.31-3.31.4-3.47.94-3.69.14-.06.3-.12.34-.13.47.01,2.58,1.77,6.79,5.27,1.87,1.55,4.24,3.52,7.26,6l1.63,1.34v-8.21c0-.55.45-1,1-1ZM17.36,78c-4.1,0-8.09-1.72-11.24-4.85l-.73-.72-.7.74c-1.12,1.18-2.06,2.49-2.81,3.91-.17.33-.51.53-.89.53-.16,0-.32-.04-.47-.12-.23-.12-.41-.33-.49-.59-.08-.26-.05-.53.07-.76,1.13-2.13,4.04-6.1,5.61-6.1.15,0,.34.04.58.34,2.97,3.63,6.9,5.63,11.07,5.63s8.1-2,11.07-5.63c.19-.23.47-.37.78-.37.17,0,.41.04.64.24,1.98,1.67,3.59,3.66,4.77,5.9.12.24.15.51.07.76-.08.26-.25.46-.49.59-.15.08-.3.12-.47.12-.37,0-.71-.2-.89-.53-.75-1.41-1.69-2.73-2.81-3.91l-.71-.74-.73.72c-3.15,3.13-7.15,4.85-11.27,4.85Zm112.67,0c-4.11,0-8.1-1.72-11.25-4.85l-.73-.72-.7.74c-1.11,1.17-2.06,2.49-2.81,3.91-.19.36-.46.54-.81.54-.38,0-.79-.23-.99-.55-.17-.28-.16-.58.02-.93,1.28-2.42,4.24-6.13,5.47-6.13.31.03.55.16.72.37,2.21,2.71,4.98,4.53,8.01,5.26,1.03.24,2.07.36,3.09.36,4.16,0,8.08-2,11.04-5.62.26-.32.6-.37.77-.37.24,0,.47.08.65.23,1.98,1.67,3.58,3.66,4.77,5.9.12.24.15.51.07.76-.08.25-.25.46-.49.59-.15.08-.3.12-.47.12-.37,0-.71-.2-.89-.53-.75-1.42-1.69-2.73-2.81-3.91l-.71-.74-.73.72c-3.15,3.13-7.14,4.85-11.26,4.85Zm-56.27-.76c-2.59,0-6.84-1.56-7.64-3.16-.14-.27-.17-.54.12-.92.19-.25.48-.4.8-.4.22,0,.43.07.6.2,1.98,1.5,4.04,2.26,6.11,2.26s4.13-.76,6.11-2.26c.18-.13.38-.2.6-.2.32,0,.61.14.8.4.29.38.26.65.12.92-.79,1.6-5.04,3.16-7.64,3.16Zm56.28-7.53c-7.71,0-13.98-8.02-13.98-17.87,0-12.03,4.57-17.87,13.98-17.87s13.98,5.85,13.98,17.87c0,9.85-6.27,17.87-13.98,17.87Zm-6.6-24.31c-2.99,2.38-4.23,4.82-4.9,6.13-.12.24-.22.44-.31.59l-.15.25v.29c.34,8.43,5.59,15.04,11.96,15.04s11.9-7.04,11.97-15.7v-1.11s-1.1.11-1.1.11c-.57.06-1.16.08-1.75.08-5.08,0-10.21-2.01-14.46-5.66l-.63-.54-.65.52Zm.71-2.81c.42,0,1.1.59,1.88,1.26,1.43,1.24,3.4,2.95,6.82,4.1,2.99,1.01,5.71,1.11,6.74,1.11.5,0,.96-.02,1.35-.07l.99-.11-.1-.99c-.85-8.03-4.7-11.94-11.78-11.94-5.97,0-9.61,2.73-11.13,8.35l-.97,3.6,2.64-2.63c.95-.95,1.99-1.79,3.07-2.5.29-.19.44-.19.49-.19Zm-106.77,27.12c-7.71,0-13.98-8.02-13.98-17.87,0-12.03,4.57-17.87,13.98-17.87s13.98,5.85,13.98,17.87c0,9.85-6.27,17.87-13.98,17.87Zm-11.97-17.7c.07,8.66,5.44,15.7,11.97,15.7s11.62-6.61,11.95-15.04v-.29s-.14-.25-.14-.25c-.09-.15-.19-.35-.31-.59-.67-1.31-1.91-3.75-4.9-6.13l-.65-.52-.63.54c-4.24,3.65-9.38,5.66-14.46,5.66-.58,0-1.17-.03-1.74-.08l-1.1-.11v1.11Zm11.98-16.04c-7.09,0-10.94,3.91-11.78,11.95l-.1.99.99.11c.38.04.82.06,1.31.06,1.04,0,3.78-.11,6.78-1.12,3.64-1.22,5.57-2.97,6.85-4.12.84-.76,1.34-1.19,1.78-1.19.88,0,2.5,1.51,3.64,2.64l2.64,2.62-.97-3.59c-1.52-5.62-5.16-8.35-11.13-8.35Zm62.08,17.93c-.94,0-.98-.83-.98-1,0-.28.09-.54.25-.71.17-.19.42-.29.74-.29h5.95c.94,0,.98.83.98,1,0,.28-.09.54-.25.71-.17.19-.42.29-.74.29h-5.95Zm-18.78,0c-.94,0-.98-.83-.98-1s.05-1,.98-1h5.95c.94,0,.98.83.98,1s-.05,1-.98,1h-5.95Zm49.87-26.49c-.32,0-.74-.13-.9-.74-3.95-14.98-17.84-24.66-35.38-24.66-2.87,0-5.77.27-8.62.82-.09.02-.18.03-.26.03-.65,0-.88-.59-.91-.95-.03-.26,0-.9.8-1.05,2.98-.56,6.01-.85,9.01-.85,18.47,0,33.11,10.27,37.3,26.15.09.34.05.61-.12.83-.2.25-.55.42-.91.42ZM57.54,5.56c-.83,0-.89-.7-.89-.91s.06-.91.89-.91.89.7.89.91c0,.25-.08.49-.22.65-.15.17-.37.26-.67.26Z" style="fill: #383838;"/>
  </g>
</svg>